<svg width="124" height="124" viewBox="0 0 124 124" fill="none" xmlns="http://www.w3.org/2000/svg">
<g clip-path="url(#clip0)">
<path fill-rule="evenodd" clip-rule="evenodd" d="M62 0C74.2624 0 86.2495 3.63624 96.4454 10.4489C106.641 17.2615 114.588 26.9446 119.281 38.2736C123.973 49.6026 125.201 62.0688 122.809 74.0956C120.416 86.1224 114.511 97.1698 105.841 105.841C97.1698 114.511 86.1224 120.416 74.0956 122.809C62.0688 125.201 49.6026 123.973 38.2736 119.281C26.9446 114.588 17.2615 106.641 10.4489 96.4454C3.63624 86.2495 0 74.2624 0 62C0 45.5566 6.53212 29.7866 18.1594 18.1594C29.7866 6.53212 45.5566 0 62 0ZM62 0C74.2624 0 86.2495 3.63624 96.4454 10.4489C106.641 17.2615 114.588 26.9446 119.281 38.2736C123.973 49.6026 125.201 62.0688 122.809 74.0956M62 0C74.2624 0 86.2495 3.63624 96.4454 10.4489C106.641 17.2615 114.588 26.9446 119.281 38.2736C123.973 49.6026 125.201 62.0688 122.809 74.0956C120.416 86.1224 114.511 97.1698 105.841 105.841M62 0C74.2624 0 86.2495 3.63624 96.4454 10.4489C106.641 17.2615 114.588 26.9446 119.281 38.2736C123.973 49.6026 125.201 62.0688 122.809 74.0956C120.416 86.1224 114.511 97.1698 105.841 105.841C97.1698 114.511 86.1224 120.416 74.0956 122.809C62.0688 125.201 49.6026 123.973 38.2736 119.281C26.9446 114.588 17.2615 106.641 10.4489 96.4454C3.63624 86.2495 0 74.2624 0 62M62 0C74.2624 0 86.2495 3.63624 96.4454 10.4489C106.641 17.2615 114.588 26.9446 119.281 38.2736C123.973 49.6026 125.201 62.0688 122.809 74.0956C120.416 86.1224 114.511 97.1698 105.841 105.841" fill="url(#paint0_linear)"/>
<path d="M62 0C74.2624 0 86.2495 3.63624 96.4454 10.4489C106.641 17.2615 114.588 26.9446 119.281 38.2736C123.973 49.6026 125.201 62.0688 122.809 74.0956C120.416 86.1224 114.511 97.1698 105.841 105.841C97.1698 114.511 86.1224 120.416 74.0956 122.809C62.0688 125.201 49.6026 123.973 38.2736 119.281C26.9446 114.588 17.2615 106.641 10.4489 96.4454C3.63624 86.2495 0 74.2624 0 62C0 45.5566 6.53212 29.7866 18.1594 18.1594C29.7866 6.53212 45.5566 0 62 0Z" fill="url(#paint1_linear)"/>
<path d="M62.5651 64.0485L31.0101 38.3464H92.7477L62.5651 64.0485Z" fill="white"/>
<path d="M51.4648 59.0837L28.9919 81.6273L28.9717 81.6071V40.7581L51.4648 59.0837Z" fill="white"/>
<path d="M30.7578 84.3115L53.917 61.1019L53.8968 61.0716L61.556 67.318C61.8399 67.5527 62.1968 67.681 62.5651 67.681C62.9334 67.681 63.2903 67.5527 63.5742 67.318L70.9105 61.1019L93.0505 84.3115H30.7578Z" fill="white"/>
<path d="M95.0283 81.8291L73.3324 59.0837V59.0433L95.0283 40.5563V81.8291Z" fill="white"/>
</g>
<defs>
<linearGradient id="paint0_linear" x1="18.1641" y1="-10.0911" x2="85.7747" y2="114.03" gradientUnits="userSpaceOnUse">
<stop stop-color="#B578FF"/>
<stop offset="1" stop-color="#7732CA"/>
</linearGradient>
<linearGradient id="paint1_linear" x1="18.1641" y1="-10.0911" x2="85.7747" y2="114.03" gradientUnits="userSpaceOnUse">
<stop stop-color="#B578FF"/>
<stop offset="1" stop-color="#7732CA"/>
</linearGradient>
<clipPath id="clip0">
<rect width="124" height="124" fill="white"/>
</clipPath>
</defs>
</svg>
