<svg width="124" height="124" viewBox="0 0 124 124" fill="none" xmlns="http://www.w3.org/2000/svg">
<g clip-path="url(#clip0)">
<circle cx="62" cy="62" r="50" fill="white"/>
<path fill-rule="evenodd" clip-rule="evenodd" d="M62 0C74.2624 0 86.2495 3.63624 96.4454 10.4489C106.641 17.2615 114.588 26.9446 119.281 38.2736C123.973 49.6026 125.201 62.0688 122.809 74.0956C120.416 86.1224 114.511 97.1698 105.841 105.841C97.1698 114.511 86.1224 120.416 74.0956 122.809C62.0688 125.201 49.6026 123.973 38.2736 119.281C26.9446 114.588 17.2615 106.641 10.4489 96.4454C3.63624 86.2495 0 74.2624 0 62C0 45.5566 6.53212 29.7866 18.1594 18.1594C29.7866 6.53212 45.5566 0 62 0V0ZM31.0101 38.3464L62.5651 64.0485L92.7477 38.3464H31.0101ZM28.9919 81.6273L51.4648 59.0837L28.9717 40.7581V81.6071L28.9919 81.6273ZM53.917 61.1019L30.7578 84.3115H93.0505L70.9105 61.1019L63.5742 67.318C63.2903 67.5526 62.9334 67.681 62.5651 67.681C62.1968 67.681 61.8399 67.5526 61.556 67.318L53.8968 61.0716L53.917 61.1019ZM73.3324 59.0837L95.0283 81.8291V40.5563L73.3324 59.0433V59.0837Z" fill="url(#paint0_linear)"/>
</g>
<defs>
<linearGradient id="paint0_linear" x1="18.1641" y1="-10.0911" x2="85.7747" y2="114.03" gradientUnits="userSpaceOnUse">
<stop stop-color="#B578FF"/>
<stop offset="1" stop-color="#7732CA"/>
</linearGradient>
<clipPath id="clip0">
<rect width="124" height="124" fill="white"/>
</clipPath>
</defs>
</svg>
