<svg width="123" height="123" viewBox="0 0 123 123" fill="none" xmlns="http://www.w3.org/2000/svg">
<g clip-path="url(#clip0)">
<circle cx="61.44" cy="61.44" r="61.44" fill="white"/>
<path fill-rule="evenodd" clip-rule="evenodd" d="M61.44 0C73.5917 0 85.4705 3.60339 95.5742 10.3545C105.678 17.1056 113.553 26.7012 118.203 37.9279C122.853 49.1546 124.07 61.5082 121.699 73.4263C119.329 85.3445 113.477 96.2921 104.885 104.885C96.2921 113.477 85.3445 119.329 73.4263 121.699C61.5082 124.07 49.1546 122.853 37.9279 118.203C26.7012 113.553 17.1056 105.678 10.3545 95.5742C3.60339 85.4705 0 73.5917 0 61.44C0 45.1451 6.47312 29.5176 17.9954 17.9954C29.5176 6.47312 45.1451 0 61.44 0V0ZM30.73 38L62 63.47L91.91 38H30.73ZM28.73 80.89L51 58.55L28.71 40.39V80.87L28.73 80.89ZM53.43 60.55L30.48 83.55H92.21L70.27 60.55L63 66.71C62.7186 66.9425 62.365 67.0697 62 67.0697C61.635 67.0697 61.2814 66.9425 61 66.71L53.41 60.52L53.43 60.55ZM72.67 58.55L94.17 81.09V40.19L72.67 58.51V58.55Z" fill="url(#paint0_linear)"/>
</g>
<defs>
<linearGradient id="paint0_linear" x1="18" y1="-10" x2="85" y2="113" gradientUnits="userSpaceOnUse">
<stop stop-color="#B578FF"/>
<stop offset="1" stop-color="#7732CA"/>
</linearGradient>
<clipPath id="clip0">
<rect width="122.88" height="122.88" fill="white"/>
</clipPath>
</defs>
</svg>
