<svg width="123" height="123" viewBox="0 0 123 123" fill="none" xmlns="http://www.w3.org/2000/svg">
<g clip-path="url(#clip0)">
<circle cx="61.44" cy="61.44" r="61.44" fill="white"/>
<path fill-rule="evenodd" clip-rule="evenodd" d="M61.44 0C95.3725 0 122.88 27.5075 122.88 61.44C122.88 95.3725 95.3725 122.88 61.44 122.88C27.5075 122.88 0 95.3725 0 61.44C0 27.5075 27.5075 0 61.44 0ZM46.4578 26.3065H76.4237C87.6768 26.3065 96.8791 35.3949 96.8791 46.4976V76.3828C96.8791 87.488 87.6768 96.5735 76.4241 96.5735L46.4578 96.5732C35.2047 96.5732 26.0012 87.4877 26.0012 76.3824V46.4972C26.0012 35.3949 35.2047 26.3065 46.4578 26.3065ZM61.2494 42.4687C72.1844 42.4687 81.0579 51.3426 81.0579 62.2775C81.0579 73.214 72.1844 82.0864 61.2494 82.0864C50.3111 82.0864 41.4391 73.214 41.4391 62.2775C41.4391 51.3426 50.3115 42.4687 61.2494 42.4687ZM61.2494 49.1595C68.4906 49.1595 74.3678 55.0353 74.3678 62.2775C74.3678 69.5202 68.4906 75.397 61.2494 75.397C54.0056 75.397 48.1295 69.5198 48.1295 62.2775C48.1295 55.0353 54.0056 49.1595 61.2494 49.1595ZM80.4135 39.7231C82.19 39.7231 83.6302 41.1634 83.6302 42.938C83.6302 44.7145 82.19 46.1547 80.4135 46.1547C78.6385 46.1547 77.1986 44.7145 77.1986 42.938C77.1986 41.163 78.6389 39.7231 80.4135 39.7231ZM48.9066 32.0462H73.9774C83.3914 32.0462 91.0904 39.7072 91.0904 49.0692V74.2657C91.0904 83.6273 83.3914 91.2872 73.9774 91.2872L48.9066 91.2876C39.4927 91.2876 31.7922 83.628 31.7922 74.2661V49.0688C31.7922 39.7072 39.4927 32.0462 48.9066 32.0462Z" fill="url(#paint0_linear)"/>
</g>
<defs>
<linearGradient id="paint0_linear" x1="92.2265" y1="113.613" x2="30.6532" y2="9.26649" gradientUnits="userSpaceOnUse">
<stop stop-color="#F58529"/>
<stop offset="0.169" stop-color="#FEDA77"/>
<stop offset="0.478" stop-color="#DD2A7B"/>
<stop offset="0.78" stop-color="#8134AF"/>
<stop offset="1" stop-color="#515BD4"/>
</linearGradient>
<clipPath id="clip0">
<rect width="122.88" height="122.88" fill="white"/>
</clipPath>
</defs>
</svg>
