<svg width="124" height="124" viewBox="0 0 124 124" fill="none" xmlns="http://www.w3.org/2000/svg">
<g clip-path="url(#clip0)">
<circle cx="62" cy="62" r="60" fill="white"/>
<path fill-rule="evenodd" clip-rule="evenodd" d="M62 0C96.2418 0 124 27.7582 124 62C124 96.2418 96.2418 124 62 124C27.7582 124 0 96.2418 0 62C0 27.7582 27.7582 0 62 0ZM46.8812 26.5462H77.1203C88.4759 26.5462 97.7621 35.7175 97.7621 46.9214V77.079C97.7621 88.2855 88.4759 97.4538 77.1207 97.4538L46.8812 97.4534C35.5256 97.4534 26.2382 88.2851 26.2382 77.0786V46.921C26.2382 35.7175 35.5256 26.5462 46.8812 26.5462ZM61.8077 42.8558C72.8423 42.8558 81.7967 51.8106 81.7967 62.8452C81.7967 73.8813 72.8423 82.8346 61.8077 82.8346C50.7697 82.8346 41.8168 73.8813 41.8168 62.8452C41.8168 51.8106 50.7701 42.8558 61.8077 42.8558ZM61.8077 49.6076C69.1149 49.6076 75.0456 55.5369 75.0456 62.8452C75.0456 70.1539 69.1149 76.0843 61.8077 76.0843C54.4979 76.0843 48.5682 70.1535 48.5682 62.8452C48.5682 55.5369 54.4979 49.6076 61.8077 49.6076ZM81.1464 40.0852C82.9391 40.0852 84.3925 41.5386 84.3925 43.3294C84.3925 45.122 82.9391 46.5754 81.1464 46.5754C79.3553 46.5754 77.9022 45.122 77.9022 43.3294C77.9022 41.5382 79.3556 40.0852 81.1464 40.0852ZM49.3524 32.3383H74.6517C84.1514 32.3383 91.9206 40.0692 91.9206 49.5164V74.9426C91.9206 84.3895 84.1514 92.1193 74.6517 92.1193L49.3524 92.1197C39.8527 92.1197 32.082 84.3903 32.082 74.943V49.5161C32.082 40.0692 39.8527 32.3383 49.3524 32.3383Z" fill="url(#paint0_linear)"/>
</g>
<defs>
<linearGradient id="paint0_linear" x1="93.0671" y1="114.649" x2="30.9326" y2="9.35095" gradientUnits="userSpaceOnUse">
<stop stop-color="#F58529"/>
<stop offset="0.169" stop-color="#FEDA77"/>
<stop offset="0.478" stop-color="#DD2A7B"/>
<stop offset="0.78" stop-color="#8134AF"/>
<stop offset="1" stop-color="#515BD4"/>
</linearGradient>
<clipPath id="clip0">
<rect width="124" height="124" fill="white"/>
</clipPath>
</defs>
</svg>
