<svg width="124" height="124" viewBox="0 0 124 124" fill="none" xmlns="http://www.w3.org/2000/svg">
<path d="M124 62C124 27.7582 96.2418 0 62 0C27.7582 0 0 27.7582 0 62C0 96.2418 27.7582 124 62 124C96.2418 124 124 96.2418 124 62Z" fill="#0077B5"/>
<path d="M65.9718 51.6651H55.2222L55.2218 86.6382L66.4223 86.6383V69.7562C66.4223 65.3022 67.317 60.9963 73.154 60.9963C78.901 60.9963 78.9832 66.0883 78.9832 70.0441V86.6379L90.1938 86.6375V67.9185C90.1938 58.7294 88.0946 51.6651 76.7435 51.6655C71.2851 51.6655 67.6243 54.4905 66.1273 57.1763L65.9718 57.1759L65.9718 51.6651Z" fill="white"/>
<path d="M41.6211 47.78C44.8389 47.78 47.4504 45.1685 47.4504 41.9507C47.4504 38.7329 44.8389 36.1215 41.6211 36.1215C38.4033 36.1215 35.7912 38.7329 35.7912 41.9507C35.7912 45.1685 38.4033 47.78 41.6211 47.78Z" fill="white"/>
<path d="M47.4504 51.6651H35.7912V86.6379L47.4504 86.6379L47.4504 51.6651Z" fill="white"/>
</svg>
