<svg width="123" height="123" viewBox="0 0 123 123" fill="none" xmlns="http://www.w3.org/2000/svg">
<g clip-path="url(#clip0)">
<circle cx="61.44" cy="61.44" r="61.44" fill="white"/>
<path fill-rule="evenodd" clip-rule="evenodd" d="M61.44 0C95.3725 0 122.88 27.5075 122.88 61.44C122.88 95.3725 95.3725 122.88 61.44 122.88C27.5075 122.88 0 95.3725 0 61.44C0 27.5075 27.5075 0 61.44 0ZM54.7234 51.1985H65.376V56.6595L65.53 56.6599C67.0135 53.9983 70.6412 51.1988 76.0503 51.1988C87.2989 51.1985 89.3792 58.1989 89.3792 67.305V85.855L78.2699 85.8553V69.4115C78.2699 65.4913 78.1884 60.4454 72.4933 60.4454C66.709 60.4454 65.8224 64.7124 65.8224 69.1261V85.8557H54.723V51.1988L54.7234 51.1985ZM47.0218 41.5718C47.0218 44.7605 44.4339 47.3484 41.2452 47.3484C38.0565 47.3484 35.4679 44.7605 35.4679 41.5718C35.4679 38.3831 38.0565 35.7952 41.2452 35.7952C44.4339 35.7952 47.0218 38.3831 47.0218 41.5718ZM35.4679 51.1985H47.0218V85.8553H35.4679V51.1985Z" fill="#0077B5"/>
</g>
<defs>
<clipPath id="clip0">
<rect width="122.88" height="122.88" fill="white"/>
</clipPath>
</defs>
</svg>
