<svg width="124" height="124" viewBox="0 0 124 124" fill="none" xmlns="http://www.w3.org/2000/svg">
<circle cx="62" cy="62" r="60" fill="white"/>
<path fill-rule="evenodd" clip-rule="evenodd" d="M62 0C96.2418 0 124 27.7582 124 62C124 96.2418 96.2418 124 62 124C27.7582 124 0 96.2418 0 62C0 27.7582 27.7582 0 62 0ZM55.2222 51.6651H65.9718V57.1759L66.1273 57.1763C67.6243 54.4905 71.2851 51.6655 76.7434 51.6655C88.0946 51.6651 90.1938 58.7294 90.1938 67.9185V86.6375L78.9833 86.6379V70.0441C78.9833 66.0883 78.901 60.9963 73.154 60.9963C67.317 60.9963 66.4223 65.3022 66.4223 69.7562V86.6383H55.2218V51.6655L55.2222 51.6651ZM47.4504 41.9507C47.4504 45.1685 44.8389 47.78 41.6211 47.78C38.4033 47.78 35.7912 45.1685 35.7912 41.9507C35.7912 38.7329 38.4033 36.1215 41.6211 36.1215C44.8389 36.1215 47.4504 38.7329 47.4504 41.9507ZM35.7912 51.6651H47.4504V86.6379H35.7912V51.6651Z" fill="#0077B5"/>
</svg>
